<?xml version="1.0" encoding="iso-8859-1"?>
<!-- Generator: Adobe Illustrator 16.0.0, SVG Export Plug-In . SVG Version: 6.00 Build 0)  -->
<!DOCTYPE svg PUBLIC "-//W3C//DTD SVG 1.1//EN" "http://www.w3.org/Graphics/SVG/1.1/DTD/svg11.dtd">
<svg version="1.1" id="&#x56FE;&#x5C42;_1" xmlns="http://www.w3.org/2000/svg" xmlns:xlink="http://www.w3.org/1999/xlink" x="0px"
	 y="0px" width="141.73px" height="141.73px" viewBox="0 0 141.73 141.73" style="enable-background:new 0 0 141.73 141.73;"
	 xml:space="preserve">
<g>
	<g>
		<path style="fill-rule:evenodd;clip-rule:evenodd;fill:#FEFEFE;" d="M70.04,142.81c-23.28,0-46.56-0.006-69.84,0.022
			c-0.822,0.001-0.983-0.161-0.983-0.982c0.025-46.64,0.025-93.28,0-139.92c0-0.822,0.161-0.983,0.983-0.983
			c46.64,0.025,93.279,0.025,139.92,0c0.821,0,0.983,0.161,0.982,0.983c-0.025,46.64-0.025,93.279,0,139.92
			c0.001,0.821-0.16,0.983-0.982,0.982C116.76,142.804,93.4,142.81,70.04,142.81z"/>
		<path style="fill-rule:evenodd;clip-rule:evenodd;fill:#1B07D2;" d="M27.589,119.258c-0.323-0.885-1.207-1.224-1.848-1.752
			c-1.584-1.305-3.051-2.624-3.981-4.533c-0.44-0.903-1.292-1.673-2.115-2.294c-0.39-0.294-0.538-0.625-0.76-0.97
			c-0.707-0.361-0.808-1.04-0.905-1.723c-0.483-0.255-0.984-0.495-1.014-1.15c-0.754-0.342-0.808-1.045-0.895-1.731
			c-0.677-0.275-0.882-0.751-1.031-1.495c-0.159-0.798-0.908-1.421-1.248-2.244c-0.507-1.229-1.761-2.13-1.576-3.676
			c0.073-0.609-0.892-0.376-0.839-0.836c0.166-1.444-1.634-2.312-1.072-3.84c-0.998-0.92-0.573-2.455-1.155-3.283
			c-0.692-0.984-0.71-1.856-0.759-2.851c-0.025-0.522-0.002-1.008-0.5-1.384c-0.498-0.377-0.437-0.995-0.459-1.552
			c-0.063-1.566,0.281-3.182-0.77-4.614c-0.243-0.332-0.161-0.93-0.163-1.406c-0.012-4.193-0.01-8.387-0.009-12.581
			c0-0.803,0.029-1.586,0.626-2.243c0.304-0.335,0.296-0.815,0.299-1.258c0.007-0.998,0.01-1.997,0.015-2.995
			c0.007-0.733,0.46-1.229,0.917-1.722c0.013-0.519,0.066-1.039,0.031-1.554c-0.109-1.624,1.406-2.838,1.115-4.501
			c1.052-0.504,0.765-1.486,0.838-2.341c0.031-0.367,0.099-0.761,0.497-0.882c0.466-0.142,0.475-0.451,0.458-0.834
			c-0.023-0.517-0.104-1.08,0.646-1.198c0.096-0.015,0.254-0.134,0.252-0.201c-0.03-0.85,0.045-1.641,0.951-2.055
			c-0.366-1.218,0.619-2.249,1.148-2.772c0.872-0.861,0.338-2.487,1.786-2.825c-0.039-0.753,0.599-1.15,0.903-1.723
			c-0.047-0.847,0.798-0.999,1.228-1.4c0.851-0.795,0.668-2.102,1.739-2.812c0.923-0.612,1.528-1.686,2.377-2.438
			c0.348-0.308,0.491-0.565,0.484-0.975c0.156-0.469,0.527-0.745,0.907-1.013c0.754-0.844,1.773-1.405,2.301-2.521
			c0.238-0.502,1.025-0.829,1.566-1.143c1.604-0.932,2.739-2.347,4.077-3.55c0.136-0.122,0.191-0.391,0.407-0.381
			c1.282,0.058,1.856-0.953,2.61-1.695c0.082-0.081,0.175-0.17,0.28-0.206c1.736-0.582,3.038-1.942,4.612-2.68
			c0.889-0.417,1.721-1.264,2.838-1.232c0.346,0.01,0.635-0.075,0.8-0.401c0.112-0.221,0.248-0.464,0.498-0.475
			c1.016-0.045,1.972-0.757,2.743-0.827c1.551-0.14,2.622-1.703,4.254-1.192c1.217-1.431,3.034-0.615,4.478-1.197
			c0.485-0.674,1.251-0.566,1.933-0.695c0.96-0.004,1.919-0.003,2.879-0.016c0.355-0.004,0.754,0.081,1.041-0.179
			c1-0.908,2.227-0.745,3.413-0.752c2.079-0.012,4.159,0.001,6.238,0.008c0.915,0.003,1.852-0.096,2.556,0.711
			c0.264,0.302,0.669,0.208,1.022,0.212c1.199,0.013,2.399,0.005,3.599,0.029c0.514,0.01,1.009,0.02,1.354,0.567
			c0.324,0.513,0.933,0.333,1.44,0.37c0.95,0.067,1.956-0.261,2.716,0.763c0.351,0.472,1.14,0.149,1.728,0.194
			c0.549,0.042,1.149-0.083,1.392,0.633c0.034,0.102,0.175,0.267,0.222,0.253c1.428-0.429,2.246,1.216,3.597,1.05
			c0.429-0.053,0.771,0.1,0.935,0.563c0.103,0.294,0.356,0.398,0.672,0.377c0.623-0.041,1.222-0.024,1.408,0.76
			c0.014,0.061,0.1,0.139,0.161,0.149c1.978,0.333,3.3,1.802,4.93,2.734c0.653,0.373,1.4,0.641,1.986,1.163
			c1.095,0.978,2.536,1.433,3.572,2.582c0.4,0.445,0.944,1.224,1.794,1.277c0.374,0.09,0.56,0.395,0.765,0.677
			c1.747,1.28,3.054,3.015,4.627,4.469c1.246,1.151,2.012,2.642,3.092,3.899c0.481,0.561,1.038,1.066,1.613,1.533
			c0.235,0.19,0.465,0.366,0.448,0.649c-0.063,1.129,0.828,1.616,1.473,2.271c0.082,0.083,0.267,0.163,0.259,0.225
			c-0.154,1.177,1.212,1.663,1.237,2.749c0.015,0.629,0.624,0.989,0.934,1.28c0.837,0.784,0.649,2.071,1.587,2.735
			c0.264,0.187,0.28,0.56,0.285,0.887c0.01,0.659,0.135,1.264,0.705,1.699c0.279,0.213,0.179,0.608,0.308,0.86
			c0.571,1.12,0.839,2.346,1.302,3.478c0.219,0.535,0.599,1.011,0.599,1.655c0,0.683-0.22,1.397,0.705,1.813
			c0.423,0.19,0.211,0.881,0.245,1.351c0.066,0.909-0.284,1.912,0.764,2.575c0.32,0.203,0.185,0.749,0.192,1.145
			c0.033,1.542-0.161,3.104,0.81,4.506c0.236,0.341,0.145,0.934,0.145,1.411c0.01,4.638,0.007,9.277,0.006,13.916
			c0,0.843-0.001,1.662-0.701,2.325c-0.45,0.427-0.219,1.064-0.249,1.61c-0.077,1.366,0.3,2.81-0.822,3.979
			c-0.281,0.293-0.132,0.77-0.142,1.166c-0.018,0.743,0.128,1.522-0.699,2.014c-0.343,0.204-0.223,0.65-0.257,1.003
			c-0.066,0.696,0.299,1.587-0.827,1.826c-0.084,0.018-0.128,0.351-0.144,0.541c-0.073,0.881,0.396,1.944-0.878,2.419
			c-0.107,0.041-0.069,0.521-0.068,0.797c0.003,0.574-0.041,1.125-0.546,1.513c-0.349,0.268-0.452,0.622-0.438,1.053
			c0.017,0.522,0.039,1.071-0.672,1.214c-0.309,0.062-0.343,0.356-0.3,0.568c0.168,0.82-0.322,1.224-0.923,1.576
			c0.006,0.736-0.617,1.135-0.92,1.705c-0.908,1.271-1.184,2.988-2.697,3.837c-0.09,0.05-0.218,0.169-0.207,0.239
			c0.281,1.942-1.911,2.255-2.429,3.71c-0.466,1.307-1.625,2.167-2.496,3.214c-0.928,1.114-3.389,1.903-4.753,1.346
			c-0.563-0.23-0.774-0.713-0.431-1.143c0.662-0.829,1.444-1.563,2.194-2.32c0.918-0.926,1.915-1.726,2.509-2.992
			c0.5-1.067,1.361-2.036,2.358-2.729c0.443-0.309,0.411-0.6,0.439-0.976c0.175-0.508,0.666-0.785,0.907-1.245
			c1.049-1.117,1.493-2.605,2.351-3.857c0.744-1.086,1.863-2.189,1.531-3.778c0.117-0.362,0.386-0.582,0.708-0.75
			c-0.195-1.322,1.491-1.988,1.171-3.354c1.667-0.74,0.226-2.876,1.687-3.776c0.247-0.153,0.14-0.898,0.177-1.371
			c0.063-0.792-0.226-1.686,0.796-2.157c0.314-0.145,0.153-0.575,0.16-0.887c0.021-0.952,0.053-1.904,0.081-2.857
			c0.186-0.358,0.505-0.62,0.7-0.972c0.21-3.861,0.231-7.726,0.205-11.591c-0.013-1.914-0.05-3.828-0.083-5.742
			c-0.015-0.846,0.066-1.622-0.656-2.394c-0.564-0.602-0.213-1.686-0.268-2.556c-0.048-0.762,0.216-1.631-0.69-2.117
			c-0.03-0.016-0.066-0.07-0.062-0.098c0.341-1.678-1.283-2.864-1.124-4.503c0.063-0.65-0.04-1.257-0.677-1.654
			c-0.187-0.117-0.459-0.417-0.417-0.53c0.516-1.384-1.145-2.123-0.973-3.385c-0.127-0.399-0.518-0.603-0.71-0.953
			c-0.039-0.334,0.054-0.701-0.239-0.973c-0.31-0.267-0.591-0.556-0.755-0.94c0.039-0.451-0.2-0.786-0.373-1.183
			c-0.466-1.067-1.441-1.83-1.623-3.1c-0.081-0.562-0.833-1.062-1.35-1.509c-0.215-0.186-0.517-0.305-0.477-0.605
			c0.165-1.227-0.908-1.599-1.517-2.3c-0.483-0.556-1.015-1.107-1.341-1.753c-0.803-1.59-2.147-2.697-3.332-3.944
			c-1.104-1.164-2.303-2.239-3.393-3.415c-0.461-0.497-1.098-0.698-1.615-1.045c-1.244-0.834-2.082-2.214-3.445-2.751
			c-0.932-0.367-1.501-1.325-2.539-1.378c-0.688-0.036-1.064-0.669-1.368-1.001c-0.754-0.821-2.086-0.555-2.626-1.61
			c-0.062-0.119-0.344-0.154-0.53-0.174c-0.575-0.064-1.243,0.077-1.429-0.743c-0.014-0.057-0.132-0.14-0.186-0.13
			c-1.347,0.248-2.275-0.855-3.438-1.204c-1.171-0.352-2.514-0.494-3.513-1.089c-0.735-0.438-1.314-0.691-2.105-0.618
			c-0.641-0.268-1.581,0.281-1.953-0.718c-1.036-0.59-2.175-0.175-3.259-0.321c-0.82-0.11-1.654-0.016-2.361-0.619
			c-0.41-0.349-0.986-0.282-1.5-0.283c-3.468-0.007-6.936,0.001-10.404,0.003c-0.607,0-1.141,0.102-1.656,0.519
			c-0.73,0.592-1.678,0.333-2.536,0.416c-1.18,0.113-2.435-0.32-3.473,0.751c-0.297,0.307-1.068,0.144-1.618,0.221
			c-0.449,0.063-0.966-0.192-1.335,0.269c-0.185,0.542-0.596,0.659-1.119,0.646c-0.427-0.011-0.865-0.084-1.285,0.073
			c-0.631,0.585-1.284,1.117-2.237,0.925c-0.572,1.35-2.26,0.515-3.093,1.622c-0.415,0.551-1.474,0.655-2.221,1.016
			c-1.109,0.536-2.026,1.527-3.05,1.812c-1.571,0.437-2.368,1.939-3.931,2.258c-0.481,0.098-0.825,0.734-1.261,1.097
			c-1.136,0.946-2.395,1.729-3.501,2.696c-1.152,1.007-2.189,2.147-3.271,3.234c-0.476,0.479-0.882,1.053-1.426,1.43
			c-0.411,0.284-0.492,0.574-0.463,0.99c-0.16,0.382-0.392,0.707-0.748,0.932c-0.629,1.133-1.964,1.735-2.428,2.928
			c-0.622,1.595-2.344,2.453-2.63,4.263c-0.093,0.591-1.246,0.729-0.965,1.651c-1.189,0.624-0.472,2.411-1.798,2.967
			c-0.062,0.025-0.02,0.296-0.026,0.452c0.231,0.586-0.005,0.949-0.552,1.166c-0.494,0.11-0.447,0.468-0.4,0.843
			c0.063,0.509,0.018,0.968-0.617,1.103c-0.105,0.022-0.285,0.168-0.273,0.199c0.549,1.459-1.129,2.369-0.93,3.693
			c0.16,1.063-0.623,1.604-1.045,2.353c0.098,1.205,0.361,2.448-0.787,3.361l-0.003-0.003c-0.22,0.889-0.084,1.793-0.091,2.689
			c-0.004,0.526-0.134,0.92-0.617,1.16c-0.479,0.675-0.289,1.461-0.294,2.187c-0.034,5.138-0.025,10.276-0.013,15.415
			c0.001,0.542-0.082,1.126,0.333,1.592c0.442,0.274,0.591,0.66,0.593,1.186c0.003,0.894-0.132,1.796,0.092,2.683l0.002-0.001
			c0.658,0.541,0.931,1.214,0.871,2.082c-0.04,0.575-0.153,1.18,0.101,1.748c0.646,0.563,0.7,1.306,0.872,2.105
			c0.253,1.175,1,2.202,1.12,3.503c0.031,0.331,0.809,0.866,0.665,1.613c-0.051,0.267,0.147,0.437,0.416,0.492
			c0.249,0.052,0.529,0.167,0.519,0.42c-0.035,0.826,0.536,1.365,0.799,2.012c0.3,0.738,0.617,1.396,1.038,2.079
			c0.287,0.466,0.002,1.277,0.896,1.403c0.064,0.01,0.149,0.202,0.145,0.306c-0.032,0.787,0.431,1.255,0.883,1.86
			c1.175,1.571,2.179,3.236,3.596,4.663c0.823,0.829,1.305,2.075,2.177,2.965c1.171,1.197,2.29,2.435,3.598,3.507
			c1.748,1.433,3.644,2.691,5.176,4.398c0.449,0.5,1.291,0.586,1.846,1.124c1.184,1.147,2.765,1.754,4.127,2.65
			c0.757,0.498,1.79,1.018,2.781,1.381c0.985,0.36,2.206,0.575,2.979,1.486c0.177,0.208,0.413,0.218,0.655,0.224
			c0.622,0.286,1.576-0.298,1.917,0.729c0.356,0.472,0.874,0.227,1.318,0.287c0.608,0.082,1.207-0.012,1.628,0.694
			c0.307,0.515,1.023,0.236,1.549,0.238c0.955,0.004,1.87,0.021,2.483,0.913c1.172,0.239,2.357,0.063,3.535,0.096
			c0.542,0.015,1.033,0.035,1.28,0.616c0.274,0.306,0.656,0.28,1.003,0.28c4.224,0.001,8.447-0.012,12.67-0.026
			c0.155-0.001,0.31-0.063,0.465-0.096c0.438-0.662,1.065-0.797,1.826-0.782c1.01,0.02,2.029,0.133,3.035-0.079
			c0.685-0.875,1.652-0.891,2.643-0.918c0.48-0.013,1.038,0.224,1.434-0.278c0.199-0.521,0.602-0.636,1.122-0.64
			c0.494-0.003,1.01,0.151,1.486-0.112c0.312-0.636,0.817-0.888,1.525-0.865c0.545,0.017,1.109,0.03,1.402-0.64
			c0.138-0.314,0.561-0.265,0.869-0.283c0.522-0.031,1.051,0.015,1.271-0.635c0.04-0.116,0.231-0.234,0.367-0.255
			c1.566-0.233,2.754-1.225,4.059-1.988c0.827-0.483-0.065-1.054,0.118-1.592c0.149-0.438-0.262-0.5-0.601-0.473
			c-0.681,0.056-1.218,0.198-1.884,0.63c-0.742,0.481-1.548,1.414-2.684,1.292c-0.391-0.042-0.72,0.071-0.879,0.459
			c-0.193,0.468-0.602,0.498-1,0.477c-0.565-0.03-1.012,0.124-1.325,0.616c-0.077,0.123-0.212,0.316-0.302,0.307
			c-0.906-0.096-1.603,0.82-2.201,0.813c-2.016-0.023-3.627,1.646-5.687,1.173c-0.391-0.089-0.807-0.025-1.032,0.405
			c-0.273,0.521-0.767,0.509-1.248,0.517c-1.396,0.021-2.793,0.039-4.189,0.059c-3.263,1.438-6.576,0.887-9.891,0.249
			c-1.551-0.585-3.166-0.137-4.743-0.298c-0.474-0.111-1.004-0.116-1.24-0.668c-0.8-0.564-1.706-0.159-2.556-0.275
			c-0.503-0.069-1.046,0.053-1.296-0.604c-0.126-0.331-0.48-0.342-0.817-0.363c-0.858-0.054-1.892,0.353-2.364-0.846
			c-0.037-0.095-0.366-0.089-0.562-0.103c-0.83-0.061-1.784,0.269-2.265-0.83c-0.058-0.132-0.509-0.122-0.778-0.126
			c-0.464-0.008-0.898-0.043-1.03-0.595c-0.106-0.447-0.453-0.37-0.76-0.367c-0.531,0.005-1.071,0.043-1.203-0.667
			c-0.046-0.248-0.233-0.292-0.443-0.292c-0.64,0.002-1.313,0.086-1.522-0.781c-0.021-0.087-0.264-0.184-0.393-0.171
			c-1.242,0.13-1.68-0.971-2.428-1.587c-0.094-0.078-0.11-0.366-0.274-0.317c-1.036,0.307-1.585-0.617-2.083-1.08
			c-1.695-1.578-3.841-2.563-5.334-4.431c-1.263-1.58-3.096-2.713-4.308-4.322c-0.746-0.99-1.66-1.902-2.223-2.998
			c-0.316-0.617-0.87-1.022-1.263-1.394c-0.941-0.89-0.958-2.247-1.898-3.054c-0.383-0.453-0.855-0.855-0.86-1.522
			c-0.552-0.541-0.744-1.471-1.093-1.862c-0.708-0.795-0.494-1.963-1.431-2.583c-0.739-0.487-0.112-1.553-0.636-2.211
			c-0.296-0.192-0.58-0.396-0.689-0.756c-0.03-0.761,0.166-1.585-0.756-2.05c-0.159-0.081-0.178-0.507-0.2-0.778
			c-0.06-0.748,0.113-1.479-0.739-2.051c-0.491-0.33-0.206-1.203-0.231-1.834c-0.027-0.665,0.115-1.364-0.697-1.74
			c-0.323-0.149-0.258-0.559-0.262-0.871c-0.013-0.878-0.026-1.757-0.006-2.635c0.013-0.613-0.025-1.17-0.522-1.636
			c-0.407-0.382-0.401-0.942-0.402-1.463c-0.009-4.27-0.011-8.54-0.01-12.81c0-0.237-0.043-0.563,0.087-0.699
			c1.285-1.338,0.719-3.002,0.845-4.542c0.054-0.658,0.027-1.228,0.709-1.76c0.629-0.491,0.142-1.498,0.263-2.266
			c0.049-0.638,0.28-1.171,0.857-1.509c0.032-0.555,0.063-1.111,0.097-1.666c0.029-0.479,0.018-0.974,0.611-1.173
			c0.127-0.042,0.31-0.195,0.309-0.296c-0.001-0.808-0.004-1.598,0.919-1.968c-0.433-1.423,1.044-2.287,1.051-3.584
			c0.002-0.369,0.068-0.731,0.513-0.839c0.199-0.048,0.457-0.109,0.411-0.337c-0.289-1.417,1.117-1.802,1.641-2.721
			c0.117-0.206,0.317-0.375,0.276-0.623c-0.133-0.793,0.405-1.092,0.974-1.377c0.131-0.661,0.148-1.382,0.898-1.719
			c-0.034-0.797,0.768-0.903,1.165-1.319c0.801-0.841,0.917-2.066,1.829-2.845c0.871-0.744,1.543-1.718,2.409-2.468
			c0.833-0.722,1.649-1.495,2.353-2.298c0.894-1.02,2.042-1.642,3.02-2.505c0.942-0.833,2.042-1.492,2.944-2.362
			c0.348-0.336,0.623-0.493,1.069-0.577c0.848-0.159,1.205-1.018,1.872-1.462c0.214-0.143,0.358-0.428,0.66-0.415
			c0.604,0.029,1.085-0.071,1.282-0.761c0.071-0.248,0.401-0.225,0.634-0.221c0.57,0.01,1.11,0.032,1.386-0.644
			c0.141-0.345,0.533-0.306,0.848-0.31c0.372-0.004,0.762-0.016,0.91-0.413c0.2-0.538,0.798-0.36,1.041-0.588
			c1.168-1.101,3-0.466,4.12-1.693c0.372-0.407,1.07-0.172,1.622-0.196c0.321-0.014,0.643,0.011,0.877-0.27
			c0.228-0.38,0.565-0.599,1-0.671c0.718-0.007,1.437,0,2.154-0.029c0.27-0.011,0.663-0.007,0.783-0.17
			c0.724-0.981,1.757-0.779,2.726-0.773c1.997,0.012,3.946-0.246,5.923-0.561c1.824-0.291,3.768-0.345,5.634,0.335
			c1.449,0.528,3.007,0.101,4.51,0.227c0.897,0.075,1.919-0.304,2.533,0.821c0.174,0.319,0.747,0.09,1.137,0.128
			c0.94,0.091,1.914-0.229,2.696,0.793c0.379,0.495,1.363,0.104,2.067,0.2c0.38,0.081,0.56,0.392,0.766,0.671
			c0.566,0.493,1.26,0.147,1.879,0.286c0.373,0.088,0.554,0.396,0.766,0.667c1.315-0.056,2.387,0.846,3.331,1.408
			c0.862,0.513,2.124,0.398,2.8,1.542c0.225,0.381,1.448,0.621,2.085,1.156c1.174,0.986,2.615,1.538,3.826,2.51
			c0.94,0.755,1.939,1.462,2.836,2.287c0.841,0.773,1.679,1.55,2.494,2.35c1.173,1.149,2.31,2.334,3.482,3.484
			c0.89,0.872,1.713,1.917,2.208,3.042c0.281,0.638,0.797,0.96,1.168,1.294c1.188,1.069,1.223,2.902,2.651,3.745
			c-0.199,1.202,1.559,1.61,1.174,2.907c-0.076,0.255,0.154,0.419,0.437,0.446c0.208,0.02,0.471,0.138,0.44,0.328
			c-0.221,1.361,1.414,2.11,1.126,3.48c0.314,0.32,0.725,0.563,0.854,1.036c0.171,0.726-0.413,1.737,0.786,2.081
			c0.054,0.016,0.124,0.14,0.111,0.198c-0.379,1.744,1.36,3.005,1.068,4.746c-0.098,0.582-0.009,1.167,0.628,1.556
			c0.473,0.289,0.269,0.873,0.312,1.336c0.129,1.381-0.384,2.859,0.811,4.081c0.277,0.282,0.141,0.999,0.142,1.516
			c0.006,4.717-0.001,9.434-0.003,14.151c-0.041,0.712-0.383,1.27-0.9,1.735c-0.019,0.917-0.023,1.834-0.061,2.75
			c-0.028,0.694,0.141,1.47-0.742,1.848c-0.313,0.134-0.188,0.49-0.199,0.755c-0.035,0.883,0.235,1.848-0.81,2.422
			c-0.148,0.081-0.139,0.514-0.14,0.784c-0.006,0.919,0.036,1.837-0.755,2.53c-0.3,0.263-0.215,0.663-0.234,1.018
			c-0.024,0.442-0.03,0.896-0.576,1.062c-0.105,0.032-0.29,0.135-0.283,0.158c0.386,1.268-1.195,1.838-1.065,3.017
			c0.031,0.282-0.075,0.57-0.399,0.661c-0.566,0.159-0.359,0.769-0.575,1.017c-0.775,0.893-0.608,2.352-1.82,2.954
			c-0.07,0.036-0.067,0.22-0.099,0.335c-0.062,0.445-0.263,0.795-0.684,0.994c-0.347,1.033-1.054,1.784-1.894,2.437
			c-0.113,0.088-0.246,0.229-0.259,0.357c-0.174,1.73-1.746,2.353-2.701,3.465c-0.677,0.788-1.407,1.517-2.121,2.267
			c-0.833,0.876-1.91,1.586-2.533,2.555c-0.618,0.961-1.635,1.164-2.393,1.624c-1.092,0.663-2.656,0.415-3.962,0.075
			c-0.608-0.159-0.634-1.002-0.075-1.344c1.133-0.692,1.577-2.268,3.122-2.396c0.718-1.713,2.434-2.529,3.53-3.91
			c0.532-0.672,0.938-1.572,1.978-1.701c0.273-0.033,0.383-0.266,0.404-0.524c0.064-0.771,0.489-1.303,1.123-1.695
			c0.678-0.42,1.187-0.898,1.081-1.827c-0.065-0.574,0.675-0.507,0.968-0.916c1.132-1.582,1.706-3.521,2.934-4.962
			c0.697-0.819,0.443-2.118,1.603-2.594c0.29-0.119,0.121-0.593,0.145-0.904c0.054-0.688-0.18-1.471,0.764-1.813
			c0.295-0.106,0.198-0.479,0.216-0.756c0.017-0.273,0.025-0.744,0.15-0.785c1.097-0.36,0.748-1.234,0.76-1.975
			c0.009-0.61,0.102-1.125,0.584-1.613c0.8-0.811,0.229-1.995,0.659-2.97c0.791-1.797,0.696-3.742,0.69-5.661
			c-0.002-0.579-0.132-1.248,0.683-1.464c0.37-0.099,0.312-0.396,0.309-0.676c-0.017-1.879-0.007-3.757-0.053-5.634
			c-0.015-0.593-0.031-1.253-0.288-1.761c-0.84-1.665-0.655-3.433-0.646-5.176c0.005-0.786-0.089-1.502-0.452-2.188
			c-0.445-0.485-0.229-1.151-0.464-1.693c-0.016-0.635-0.032-1.271-0.049-1.906c-0.257-0.83-1.444-1.285-0.97-2.409
			c0.063-0.271,0.104-0.539-0.137-0.755c-0.402-0.199-0.568-0.583-0.749-0.956c-0.025-0.893-0.404-1.653-0.698-2.463
			c-0.379-1.043-1.089-1.968-1.271-3.094c-0.152-0.938-0.983-1.54-1.291-2.418c-0.389-1.11-1.599-1.806-1.577-3.141
			c0.008-0.525-0.614-0.621-0.893-0.812c-1.059-0.729-0.829-2.133-1.822-2.927c-1.232-0.985-2.26-2.236-3.332-3.413
			c-1.047-1.15-2.123-2.261-3.282-3.302c-1.721-1.546-3.361-3.14-5.372-4.38c-1.227-0.756-2.54-1.442-3.73-2.315
			c-0.755-0.553-1.655-1.345-2.784-1.396c-0.36-0.016-0.736-0.038-0.828-0.512c-0.056-0.292-0.302-0.367-0.537-0.389
			c-0.852-0.079-1.785,0.075-2.293-0.885c-1.456,0.261-2.49-1.031-3.843-1.062c-0.868-0.02-1.629-0.13-2.199-0.842
			c-1.006-0.215-2.024-0.077-3.036-0.085c-0.545-0.005-1.006-0.084-1.34-0.546c-0.422-0.491-1.012-0.419-1.554-0.421
			c-3.836-0.015-7.673-0.014-11.51-0.003c-0.631,0.002-1.185,0.093-1.729,0.599c-0.604,0.563-1.533,0.23-2.313,0.336
			c-0.96,0.129-2.108-0.424-2.796,0.785c-0.086,0.151-0.521,0.123-0.796,0.143c-0.846,0.063-1.767-0.18-2.349,0.784
			c-0.108,0.179-0.59,0.148-0.903,0.182c-0.641,0.069-1.408-0.18-1.688,0.734c-0.024,0.078-0.208,0.169-0.3,0.154
			c-1.336-0.229-2.128,1.002-3.328,1.287c-0.647,0.154-1.54,0.75-2.276,1.2c-0.828,0.506-1.604,1.213-2.634,1.426
			c-0.703,0.145-1.224,0.8-1.68,1.231c-1.061,1.002-2.502,1.472-3.42,2.574c-1.011,1.215-2.462,1.892-3.421,3.23
			c-0.916,1.28-2.106,2.425-3.328,3.497c-0.803,0.705-1.52,1.603-1.999,2.554c-0.411,0.817-1.071,1.398-1.557,2.128
			c-0.25,0.376-0.456,0.7-0.518,1.135c-0.056,0.395-0.076,0.826-0.639,0.846c-0.172,0.007-0.352,0.089-0.338,0.265
			c0.116,1.405-1.369,2.033-1.596,3.14c-0.26,1.27-0.91,2.393-1.405,3.473c-0.482,1.051-0.453,2.319-1.06,3.079
			c-0.634,0.793-0.689,1.484-0.731,2.319c-0.008,0.158-0.008,0.389-0.104,0.457c-1.152,0.824-0.725,2.057-0.844,3.148
			c-0.026,0.238,0.02,0.547-0.111,0.699c-1.123,1.302-0.82,2.874-0.785,4.353c0.033,1.364-0.568,2.549-0.771,3.828
			c-0.327,2.055-0.21,4.141-0.023,6.213c0.238,0.456-0.04,0.987,0.21,1.441h0c0.567,0.266,0.594,0.757,0.604,1.302
			c0.029,1.505-0.123,3.014,0.08,4.516c0.985,0.82,0.776,1.972,0.838,3.045c0.02,0.336-0.234,0.705,0.137,0.991
			c0.333,0.156,0.589,0.386,0.717,0.74c0.025,0.598,0.087,1.198,0.066,1.795c-0.027,0.79,0.692,1.224,0.87,1.819
			c0.431,1.451,1.425,2.699,1.741,4.069c0.41,1.781,1.432,3.233,2.285,4.633c0.699,1.147,0.911,2.83,2.481,3.512
			c0.582,0.253,0.259,1.292,0.992,1.88c1.027,0.823,1.973,1.887,2.769,2.904c0.897,1.146,2,2.034,2.959,3.075
			c1.149,1.246,2.349,2.465,3.751,3.47c1.545,1.107,3.07,2.254,4.603,3.373c0.683,0.5,1.714,0.688,2.418,1.273
			c1.122,0.934,2.646,0.86,3.839,1.729c0.684,0.498,1.805,0.441,2.602,1.064c1.354,1.058,3.183,0.676,4.563,1.261
			c1.495,0.635,3.211,0.379,4.57,1.437c0.451,0.352,1.313,0.226,1.987,0.229c3.919,0.018,7.839,0.014,11.758,0.008
			c0.762-0.002,1.511-0.045,2.116-0.639c0.3-0.296,0.747-0.243,1.144-0.268c1.196-0.076,2.366,0.063,3.481-0.787
			c0.552-0.42,1.624-0.166,2.461-0.193c0.479-0.016,0.99,0.086,1.163-0.557c0.02-0.072,0.081-0.199,0.108-0.195
			c1.191,0.161,1.839-1.244,2.941-1.102c1.38,0.179,2.167-0.925,3.255-1.343c1.463-0.563,2.721-1.646,4.426-1.564
			c0.679,0.031,1.374,0.088,2.037-0.021c1.639-0.269,3.037,0.579,4.554,0.847c1,0.177,2.152,0.542,2.915-0.668
			c0.098-0.155,0.523-0.141,0.797-0.142c3.639-0.013,7.276-0.008,10.914-0.022c0.706-0.003,1.177,0.186,1.129,1.005
			c-0.02,0.326,0.013,0.807,0.381,0.755c1.078-0.149,1.332,0.986,2.129,1.249c0.142,0.046,0.316,0.318,0.301,0.467
			c-0.135,1.227,0.927,1.646,1.547,2.361c0.102,0.117,0.328,0.236,0.314,0.326c-0.26,1.678,1.511,2.854,1.099,4.588
			c-0.146,0.614,0.074,1.182,0.6,1.711c0.678,0.683,0.256,1.677,0.328,2.532c0.049,0.569-0.212,1.238,0.652,1.434
			c0.09,0.02,0.229,0.202,0.21,0.262c-0.419,1.225,1.148,1.741,1.032,2.948c-0.039,0.41,0.738,1.076,1.28,1.318
			c0.622,0.277,0.772,0.619,0.69,1.183c-0.099,0.684-0.658,1.131-1.198,1.114c-1.641-0.052-3.319,0.438-4.932-0.322
			c-0.403-0.189-0.943-0.092-1.421-0.117c-0.805-0.042-1.485-0.366-2.222-0.658c-1.338-0.53-2.016-1.605-3.002-2.396
			c-0.695-0.557-1.174-1.661-1.229-2.28c-0.186-2.089-1.741-3.904-1.15-6.109c0.18-0.668-0.037-1.276-0.556-1.733
			c-0.51-0.448-0.324-1.025-0.36-1.566c-0.015-0.22,0.085-0.528-0.257-0.57c-0.305-0.037-0.648-0.131-0.917,0.103
			c-0.789,0.686-1.623,3.95-0.898,4.698c1.149,1.188,0.706,2.526,0.892,3.813c0.322,0.317,0.776,0.52,0.885,1.021
			c-0.157,1.781,1.133,2.819,2.225,3.794c0.543,0.485,0.719,0.811,0.646,1.421c-0.205,0.576-0.634,0.733-1.215,0.751
			c-0.704,0.021-1.438-0.19-2.111,0.191c-0.696,0.004-1.392,0.007-2.087,0.011c-0.284-0.271-0.742-0.141-1.015-0.439
			c-0.478-0.017-0.959-0.082-1.432-0.039c-1.471,0.134-2.408-0.746-3.346-1.669c-0.688-0.68-1.567-1.179-1.969-2.124
			c-0.319-0.319-0.771-0.522-0.887-1.019c-0.008-0.159,0.01-0.325-0.029-0.477c-0.121-0.469,0.313-1.271-0.261-1.364
			c-0.72-0.116-1.685-0.537-2.251,0.469c-0.071,0.127-0.252,0.311-0.344,0.291c-1.198-0.257-1.974,0.767-2.786,1.217
			c-0.963,0.533-2.218,0.435-2.77,0.955c-0.944,0.89-2.353,0.388-2.784,0.934c-0.978,1.233-2.567,0.442-3.528,1.551
			c-0.485,0.562-1.598,0.249-2.432,0.267c-0.595,0.012-1.175-0.062-1.582,0.57c-0.256,0.398-0.773,0.355-1.21,0.367
			c-1.115,0.029-2.229,0.048-3.345,0.07c-0.209,0.228-0.54,0.246-0.768,0.443c-5.194,0.008-10.398,0.194-15.578-0.08
			c-1.635-0.087-3.533,0.104-4.943-0.583c-1.429-0.697-2.92-0.367-4.147-0.917c-1.155-0.517-2.542-0.438-3.374-1.025
			c-0.917-0.646-2.138-0.345-2.574-0.874c-0.959-1.163-2.672-0.331-3.425-1.634c-0.146-0.254-0.512-0.174-0.787-0.172
			c-0.537,0.003-0.93-0.09-1.275-0.64c-0.401-0.638-1.331-0.644-1.975-1.014c-0.735-0.423-1.652-0.813-2.365-1.303
			c-0.795-0.546-1.889-0.65-2.424-1.572c-0.087-0.149-0.184-0.268-0.36-0.255c-1.237,0.094-1.713-0.955-2.469-1.604
			c-0.509-0.437-1.099-0.893-1.648-1.154c-1.346-0.641-2.132-1.854-3.256-2.677c-1.05-0.771-1.65-2.008-3.126-2.415
			c-0.905-0.249-1.589-1.434-2.289-2.27c-1.083-1.293-2.066-2.668-3.143-3.966c-0.671-0.81-1.545-1.418-2.15-2.321
			c-0.741-1.105-1.407-2.249-2.387-3.238c-0.478-0.482-0.896-1.54-1.289-2.363c-0.367-0.77-0.556-1.683-1.477-2.074
			c-0.127-0.054-0.308-0.251-0.288-0.344c0.258-1.2-0.729-1.974-1.206-2.781c-0.597-1.013-0.896-1.933-0.888-3.051
			c0.003-0.492-0.578-0.575-0.849-0.899c-0.979-1.168-0.83-2.793-1.813-3.97c-0.474-0.567,0.001-1.577-0.446-2.301
			c-0.444-0.305-0.583-0.776-0.688-1.265c0.002-1.138,0.037-2.255-0.717-3.258c-0.406-0.54-0.174-1.303-0.304-1.954
			c-0.5-0.573-0.858-1.211-0.896-1.992c-0.017-1.336-0.034-2.672-0.051-4.007c-0.163-0.16-0.22-0.36-0.222-0.58
			c-0.012-0.305,0.028-0.62-0.202-0.875c-0.014-5.774-0.119-11.552,0.042-17.321c0.029-1.037,0.441-2.155,0.433-3.274
			c0.178-0.591-0.104-1.36,0.665-1.724c0.419-0.557,0.261-1.21,0.308-1.83c0.051-0.684-0.145-1.472,0.749-1.82
			c0.081-0.031,0.169-0.195,0.158-0.286c-0.208-1.671,0.275-3.192,0.985-4.667c0.114-0.475,0.161-0.987,0.69-1.229
			c0.21-0.264,0.3-0.586,0.254-0.899c-0.217-1.481,0.963-2.441,1.403-3.676c0.186-0.523,0.618-0.967,0.578-1.605
			c-0.023-0.365,0.038-0.799,0.426-0.906c0.539-0.148,0.514-0.501,0.522-0.908c0.011-0.488,0.052-0.966,0.671-1.111
			c0.12-0.028,0.304-0.229,0.287-0.319c-0.172-0.94,0.566-1.375,1.032-1.975c0.46-0.592,1.031-1.127,0.977-2.003
			c-0.031-0.509,0.656-0.353,0.839-0.712c0.003-0.73,0.514-1.197,0.897-1.729c0.089-0.967,1.142-1.122,1.562-1.893
			c0.678-1.246,1.718-2.289,2.5-3.487c0.248-0.379,0.699-0.263,0.905-0.684c0.313-0.641,1.163-1.007,0.941-1.938
			c-0.03-0.124,0.185-0.427,0.321-0.451c1.679-0.301,2.06-2.026,3.216-2.875c0.524-0.385,0.824-1.109,1.621-1.123
			c0.402-0.007,0.505-0.318,0.536-0.667c0.044-0.494,0.427-0.891,0.771-1c1.084-0.344,1.816-1.046,2.433-1.938
			c0.06-0.087,0.202-0.188,0.292-0.175c1.216,0.164,1.579-0.903,2.24-1.538c0.112-0.107,0.202-0.327,0.312-0.334
			c1.375-0.085,2.104-1.333,3.189-1.789c1.63-0.684,2.655-2.49,4.64-2.423c0.218-0.396,0.559-0.611,1.001-0.673
			c0.849-0.832,2.059-0.724,2.972-1.134c0.74-0.333,1.653-0.541,2.281-1.025c0.737-0.568,1.436-0.777,2.293-0.738
			c0.08,0.003,0.21,0.025,0.232-0.012c0.671-1.139,2.048-0.619,2.84-1.155c1.273-0.862,2.581-0.67,3.907-0.754
			c0.541-0.034,1.143,0.145,1.401-0.588c0.086-0.246,0.376-0.342,0.605-0.309c2.002,0.284,3.873-0.624,5.863-0.592
			c5.075,0.082,10.151,0.048,15.227,0.061c0.352,0.334,0.899,0.08,1.252,0.415c1.004,0.143,2.013,0.09,2.901,0.853
			c0.513,0.44,1.389,0.124,2.1,0.181c1.002,0.081,2.091-0.178,2.875,0.778c0.119,0.146,0.438,0.171,0.666,0.177
			c0.828,0.021,1.656-0.074,2.244,0.759c0.236,0.335,0.743,0.188,1.136,0.206c0.443,0.07,0.806,0.254,0.987,0.695
			c0.3,0.391,0.731,0.222,1.11,0.25c0.685,0.052,1.491-0.214,1.784,0.764c0.025,0.083,0.182,0.183,0.272,0.179
			c1.361-0.055,1.955,1.389,2.922,1.648c1.155,0.311,1.944,1.49,3.252,1.251c0.43,0.092,0.801,0.266,0.982,0.705
			c1.9,1.072,3.822,2.125,5.277,3.8c0.427,0.491,1.092,0.193,1.583,0.838c0.739,0.969,1.823,1.744,2.967,2.326
			c0.352,0.125,0.569,0.391,0.742,0.703c0.221,0.783,0.814,1.251,1.496,1.54c1.362,0.575,1.63,2.42,3.22,2.706
			c0.087,0.016,0.22,0.177,0.213,0.26c-0.161,1.826,1.783,2.16,2.414,3.421c0.377,0.754,1.327,1.036,1.584,1.895
			c0.278,0.435,0.823,0.684,0.879,1.271c-0.239,0.797,0.656,0.725,0.933,1.177c1.019,1.659,2.126,3.262,2.926,5.047
			c1.346,0.212,0.355,2.134,1.739,2.378c0.236,0.042,0.18,0.572,0.172,0.89c-0.01,0.378,0,0.72,0.491,0.805
			c0.138,0.023,0.374,0.192,0.361,0.249c-0.311,1.409,1.476,2.134,1.146,3.537c0.354,0.378,0.803,0.689,0.879,1.26
			c0.049,0.708-0.246,1.545,0.737,1.9c0.079,0.029,0.13,0.2,0.152,0.313c0.199,1-0.261,2.223,0.975,2.872
			c-0.299,2.086,1.563,3.788,1.055,5.912c0.467,0.49,0.915,0.989,0.918,1.726c0.004,1.078,0.005,2.155,0.013,3.233
			c0.006,0.883,0.076,1.725,0.622,2.504c0.451,0.645,0.313,1.467,0.316,2.219c0.013,4.43,0.008,8.86,0.01,13.29
			c-0.021,0.789-0.479,1.381-0.895,1.991c-0.021,1.271-0.043,2.541-0.064,3.812c-0.046,0.701-0.216,1.342-0.866,1.743
			c-0.22,0.663-0.049,1.345-0.09,2.017c-0.037,0.61-0.067,1.217-0.615,1.606c-0.353,0.251-0.344,0.584-0.355,0.948
			c-0.028,0.866,0.313,1.829-0.808,2.385c-0.328,0.162-0.102,0.743-0.141,1.131c-0.062,0.603,0.175,1.342-0.749,1.522
			c-0.062,0.012-0.159,0.108-0.153,0.154c0.155,1.18-0.579,2.043-0.995,3.038c-0.523,1.254-0.755,2.629-1.852,3.588
			c-0.231,0.202-0.103,0.527-0.103,0.802c0,0.454-0.018,0.903-0.609,0.991c-0.386,0.058-0.429,0.366-0.371,0.627
			c0.183,0.832-0.313,1.21-0.938,1.526c-0.063,0.698-0.141,1.389-0.892,1.731c-0.153,0.343-0.097,0.835-0.629,0.909
			c-0.219,0.031-0.427,0.12-0.376,0.354c0.303,1.385-1.017,1.739-1.617,2.54c-0.145,0.193-0.321,0.338-0.316,0.589
			c0.021,1.188-1.059,1.563-1.655,2.302c-1.301,1.611-3.052,0.737-4.607,0.912c-0.437,0.05-0.907-0.084-1.045-0.607
			c-0.116-0.442,0.325-0.674,0.449-0.979c0.317-0.781,1.487-0.901,1.394-1.924c0.171-0.381,0.457-0.676,0.737-0.976
			c0.154-0.737,0.843-1.111,1.285-1.577c1.003-1.055,1.11-2.765,2.602-3.428c0.234-0.104,0.141-0.428,0.124-0.663
			c-0.036-0.496-0.067-0.983,0.619-1.072c0.103-0.014,0.284-0.154,0.274-0.187c-0.383-1.187,0.77-1.784,1.154-2.63
			c0.443-0.974,0.559-2.222,1.544-2.929c0.272-0.196,0.303-0.449,0.269-0.735c-0.058-0.482,0.07-0.876,0.535-1.09
			c0.408-0.188,0.255-0.672,0.406-0.863c0.967-1.219,0.427-2.98,1.547-4.114c0.055-0.056,0.142-0.136,0.132-0.189
			c-0.31-1.669,1.273-2.873,1.09-4.535c-0.08-0.725-0.063-1.513,0.668-2.054c0.307-0.228,0.222-0.657,0.22-1.014
			c0.188-0.86,0.106-1.733,0.074-2.595c-0.043-1.104,0.099-2.122,0.838-2.99c0.212-3.581,0.039-7.165,0.093-10.748
			c0.01-0.677,0.014-1.355-0.01-2.032c-0.04-1.203,0.033-2.343-0.632-3.539c-0.612-1.101-0.333-2.57-0.308-3.884
			c0.006-0.315,0.116-0.631-0.075-0.928c-0.778-0.593-0.924-1.401-0.866-2.322c0.032-0.5,0.128-1.025-0.09-1.52l-0.022,0.017
			c-0.634-0.378-0.849-0.944-0.845-1.668c0.004-0.65,0.133-1.313-0.098-1.954c-0.576-0.459-0.674-1.096-0.877-1.775
			c-0.363-1.216-0.642-2.536-1.565-3.513c-0.47-0.497,0.026-1.196-0.438-1.662c-0.341-0.243-0.509-0.619-0.729-0.953
			c0.044-0.459,0.01-0.868-0.475-1.122c-0.392-0.206-0.531-0.577-0.489-1.014c0.038-0.395-0.043-0.707-0.487-0.835
			c-0.138-0.04-0.366-0.219-0.35-0.277c0.35-1.257-1.293-1.675-1.176-2.83c0.06-0.592-0.554-0.771-0.854-1.051
			c-1.011-0.944-1.079-2.425-2.058-3.35c-0.395-0.372-0.586-0.978-1.231-1.068c-0.256-0.036-0.501-0.186-0.492-0.447
			c0.054-1.605-1.386-2.251-2.208-3.209c-1.046-1.217-2.269-2.311-3.4-3.477c-1.392-1.434-2.744-3.015-4.416-4.037
			c-1.647-1.006-3.215-2.15-4.748-3.269c-1.199-0.875-2.503-1.699-3.735-2.431c-0.771-0.458-1.923-0.922-2.752-1.375
			c-0.91-0.497-2.226-0.386-2.817-1.487c-0.188-0.35-0.571-0.197-0.872-0.218c-0.637-0.044-1.28-0.009-1.658-0.703
			c-0.176-0.323-0.556-0.25-0.872-0.267c-0.557-0.028-1.148,0.016-1.381-0.686c-0.03-0.091-0.183-0.227-0.246-0.211
			c-1.823,0.466-3.182-1.263-4.969-1.036c-0.693,0.089-1.436,0.078-1.899-0.689c-0.208-0.343-0.656-0.227-1.006-0.233
			c-1.159-0.023-2.319-0.004-3.478-0.049c-0.709-0.027-1.435-0.035-2.002-0.617c-0.255-0.262-0.654-0.277-1.02-0.277
			c-3.438,0.001-6.876,0.003-10.314,0.008c-0.32,0-0.691-0.036-0.899,0.236c-0.514,0.672-1.245,0.641-1.957,0.667
			c-0.799,0.03-1.599,0.011-2.398,0.03c-0.763,0.019-1.48-0.126-2.128,0.663c-0.456,0.555-1.439,0.251-2.191,0.281
			c-0.551,0.022-1.138-0.099-1.436,0.577c-0.053,0.121-0.248,0.25-0.38,0.253c-1.339,0.028-2.517,0.524-3.761,0.985
			c-1.397,0.517-2.785,1.009-4.084,1.741c-0.103,0.058-0.212,0.133-0.324,0.143c-1.897,0.17-3.254,1.57-4.94,2.242
			c-0.531,0.211-1.224,0.576-1.741,1.025c-0.198,0.925-1.092,0.463-1.587,0.797c-0.19,1.124-1.435,0.854-2.07,1.532
			c-0.626,0.668-1.53,1.165-2.178,1.917c-0.215,0.249-0.592,0.359-0.895,0.533c-0.146,0.847-0.92,0.56-1.413,0.782
			c-0.859,0.89-1.691,1.809-2.585,2.662c-1.2,1.145-2.365,2.32-3.518,3.514c-1.449,1.501-2.438,3.337-3.815,4.87
			c-1.555,1.729-2.79,3.631-3.858,5.7c-0.514,0.996-1.041,2.045-1.77,2.941c0.233,0.585-0.008,0.948-0.55,1.168
			c-0.374,0.119-0.471,0.379-0.401,0.745c0.104,0.548,0.101,1.047-0.603,1.202c-0.107,0.023-0.289,0.163-0.279,0.19
			c0.42,1.139-0.853,1.687-0.919,2.67c-0.051,0.753,0.101,1.633-0.894,2.025c-0.287,0.113-0.155,0.481-0.131,0.761
			c0.061,0.73,0.028,1.438-0.681,1.91c-0.204,0.136-0.339,0.38-0.284,0.624c0.264,1.167,0.021,2.143-0.996,2.857
			c0.144,0.773,0.016,1.555,0.071,2.331c0.035,0.497-0.208,0.808-0.59,1.056c-0.431,0.514-0.274,1.133-0.31,1.717
			c-0.087,1.44,0.244,2.937-0.8,4.232c-0.248,0.308-0.147,0.924-0.148,1.398C4.465,69.474,4.47,73.5,4.469,77.528
			c0,0.798-0.001,1.561,0.599,2.238c0.403,0.454,0.31,1.137,0.337,1.729c0.052,1.153,0.073,2.308,0.106,3.462
			c0.607,0.521,0.882,1.191,0.888,1.981c-0.01,0.872,0.125,1.596,0.565,2.473c0.558,1.109,0.879,2.478,1.217,3.748
			c0.198,0.746,0.084,1.525,0.785,2.108c0.299,0.249,0.322,0.752,0.253,1.137c-0.101,0.562-0.201,1.04,0.568,1.15
			c0.092,0.014,0.235,0.16,0.235,0.245c0,0.865,0.168,1.64,0.999,2.107c-0.513,1.26,1.534,1.679,0.972,2.955
			c1.317,0.302,0.511,2.035,1.761,2.565c0.426,0.182,0.587,1.327,1.039,1.977c1.086,1.563,1.839,3.375,3.456,4.527
			c0.714,0.509,0.589,1.436,1.212,2.101c1.125,1.199,2.359,2.295,3.445,3.533c1.092,1.245,2.334,2.355,3.507,3.521
			c0.881,0.876,1.77,1.839,3.066,2.269c0.566,0.188,1.011,0.778,1.476,1.224c0.704,0.675,1.355,1.314,2.36,1.664
			c0.677,0.236,1.315,0.805,2.018,1.176c0.974,0.515,1.938,1.161,2.792,1.772c0.855,0.613,2.228,0.335,2.68,1.56
			c0.042,0.114,0.432,0.113,0.664,0.141c0.506,0.061,1.044,0.004,1.304,0.622c0.151,0.358,0.538,0.28,0.847,0.312
			c0.661,0.065,1.401-0.052,1.725,0.774c0.023,0.061,0.129,0.138,0.184,0.129c1.139-0.182,1.968,0.533,2.886,0.988
			c0.412,0.189,0.849,0.101,1.27,0.085c0.526-0.019,0.916,0.135,1.146,0.623c0.407,0.431,0.929,0.245,1.413,0.266
			c0.457,0.163,0.932,0.087,1.394,0.072c0.501-0.017,0.813,0.206,1.041,0.612c0.881,0.576,1.864,0.201,2.796,0.287
			c1.211,0.112,2.483-0.165,3.532,0.783c0.217,0.197,0.686,0.156,1.038,0.157c3.519,0.01,7.038,0.005,10.557,0.006
			c0.612,0.001,1.161-0.102,1.657-0.539c0.586-0.518,1.368-0.308,2.07-0.393c1.362-0.164,2.872,0.463,4.041-0.801
			c0.167-0.181,0.611-0.121,0.93-0.145c0.919-0.064,1.916,0.211,2.592-0.777c0.125-0.182,0.599-0.141,0.914-0.173
			c0.864-0.088,1.823,0.209,2.436-0.79c0.122-0.199,0.671-0.166,1.026-0.186c0.525-0.031,0.974-0.063,1.341-0.583
			c0.49-0.692,1.479-0.087,2.078-0.633c0.282-1.047,1.284-0.414,1.853-0.794c0.331-0.593,0.863-0.727,1.497-0.921
			c0.86-0.266,1.644-0.839,2.477-1.251c0.282-0.14,1.084-0.767,0.038-1.213c-0.086-0.036-0.088-0.288-0.114-0.442
			c-0.054-0.314,0.348-0.774-0.185-0.919c-0.45-0.123-0.37,0.418-0.55,0.641c-0.21,0.261-0.489,0.243-0.762,0.247
			c-0.37,0.005-0.706-0.001-0.81,0.484c-0.077,0.362-0.384,0.505-0.734,0.475c-0.608-0.053-1.101,0.064-1.291,0.735
			c-0.009,0.034-0.06,0.088-0.079,0.083c-1.28-0.301-1.892,1.259-3.118,1.117c-0.379-0.044-0.699,0.1-0.937,0.418
			c-0.116,0.155-0.291,0.429-0.392,0.409c-1.626-0.318-2.676,1.604-4.345,1.102c-0.262-0.079-0.56-0.009-0.758,0.242
			c-0.201,0.6-0.756,0.572-1.228,0.693c-0.984,0.077-2.059-0.295-2.829,0.771c-0.173,0.237-0.828,0.134-1.263,0.174
			c-1.747,0.16-3.592-0.394-5.207,0.801c-0.304,0.225-0.855,0.148-1.292,0.149c-3.12,0.01-6.24,0.007-9.359-0.003
			c-0.719-0.002-1.438-0.003-1.972-0.642c-0.283-0.339-0.725-0.279-1.125-0.282c-1.04-0.008-2.08-0.013-3.12-0.031
			c-0.52-0.01-1.053,0.003-1.36-0.559c-0.072-0.132-0.257-0.327-0.343-0.306c-1.973,0.494-3.522-1.2-5.424-1.036
			c-0.433-0.079-0.779-0.285-0.997-0.679c-0.387-0.417-0.896-0.232-1.356-0.267c-0.483-0.035-0.954-0.028-1.223-0.558
			c-0.157-0.308-0.472-0.408-0.813-0.398c-0.688,0.021-1.351,0.045-1.656-0.8c-0.104-0.287-0.502-0.14-0.768-0.159
			c-0.398-0.029-0.824,0.016-0.974-0.491c-0.127-0.429-0.443-0.502-0.835-0.476c-0.502,0.034-0.953-0.028-1.145-0.611
			c-0.042-0.13-0.201-0.308-0.314-0.313c-1.322-0.063-2.025-1.304-3.071-1.68c-1.457-0.522-2.23-2-3.815-2.294
			c-0.534-0.099-0.868-1.015-1.418-1.354c-0.667-0.412-0.943-1.27-1.773-1.451C28.27,120.043,28.005,119.554,27.589,119.258z"/>
		<path style="fill-rule:evenodd;clip-rule:evenodd;fill:#1B07D2;" d="M47.744,53.782c-0.119,0.304-0.081,0.605,0.013,0.905
			c0.627,0.828,0.542,1.656,0.004,2.485c-0.017,0.387-0.034,0.774-0.051,1.161c0.462,0.754,0.7,1.525,0.208,2.367
			c-0.081,0.138-0.125,0.321-0.068,0.465c0.787,1.99,0.188,4.035,0.192,6.043c0.01,5.393,0.189,10.784,0.165,16.177
			c-0.004,0.736-0.083,1.433-0.474,2.068c-0.003,0.398-0.006,0.797-0.009,1.195c0.486,0.95,0.723,1.899,0.191,2.938
			c-0.173,0.339-0.116,0.79-0.053,1.174c0.528,3.224,0.146,6.458,0.129,9.688c0,0.116-0.075,0.225-0.122,0.335
			c-0.124,0.644,0.101,1.312-0.135,1.947c-0.063,0.554-0.142,1.094,0.128,1.637c0.506,1.019-0.344,2.429-1.467,2.434
			c-2.999,0.014-5.997-0.005-8.995,0.012c-0.837,0.004-1.676,0.056-2.509,0.141c-1.279,0.13-1.519-0.026-1.537-1.297
			c-0.03-2.118-0.023-4.237-0.023-6.356c-0.001-19.589-0.001-39.178,0-58.768c0-0.439,0.015-0.878,0.023-1.318
			c0.462-0.628,1.18-0.772,1.854-0.78c3.626-0.04,7.251-0.224,10.879-0.139c1.319,0.031,1.572,0.297,1.6,1.62
			c0.011,0.219,0.022,0.437,0.033,0.655c0.691,0.656,0.695,1.467,0.521,2.318c-0.573,3.112-0.179,6.252-0.281,9.377
			C47.943,52.779,48.015,53.305,47.744,53.782z"/>
		<path style="fill-rule:evenodd;clip-rule:evenodd;fill:#1B07D2;" d="M100.062,39.105c0.473,0.277,0.93,0.62,0.68,1.232
			c-0.78,1.915-0.646,3.941-0.651,5.915c-0.048,17.512-0.053,35.023-0.005,52.535c0.006,2.344-0.276,4.701,0.168,7.042
			c0.159,0.843-0.396,0.984-1.095,0.981c-3.518-0.014-7.036-0.002-10.555-0.01c-0.526-0.002-1.037,0.015-1.505,0.29
			c-0.9,0.49-1.067-0.119-1.189-0.795c0.001-22.222,0.001-44.443,0.001-66.665c0.051-0.957,0.575-1.22,1.496-1.241
			c2.897-0.065,5.792,0.129,8.688,0.021c0.675-0.024,1.348,0.021,2.022-0.101C98.913,38.166,99.624,38.325,100.062,39.105z"/>
		<path style="fill-rule:evenodd;clip-rule:evenodd;fill:#1B07D2;" d="M83.927,85.918c-0.127,1.231-0.872,2.064-1.793,2.786
			c-0.092,0.071-0.255,0.165-0.248,0.235c0.17,1.784-1.52,2.625-2.176,4.004c-0.563,1.182-0.954,2.841-2.47,3.508
			c-0.229,0.1-0.211,0.4-0.145,0.648c0.088,0.335,0.015,0.758-0.232,0.872c-1.039,0.478-1.281,1.535-1.639,2.396
			c-0.258,0.62-1.263,0.541-1.069,1.39c0.218,0.582-0.012,0.952-0.558,1.17c-0.547,0.257-0.494,1.111-1.203,1.204
			c-0.206,0.572,0.187,1.396-0.706,1.681c-0.241,0.089-0.337,0.296-0.468,0.502c-0.571,0.904-1.193,1.678-2.483,1.474
			c-0.779-0.124-1.594-0.021-2.393-0.023c-1.219-0.004-2.333-0.914-2.388-2.175c-0.032-0.75-0.746-1.186-0.969-1.291
			c-1.081-0.512-1.042-1.684-1.654-2.446c-0.58-0.723-1.152-1.388-1.878-1.949c-0.178-0.138-0.443-0.411-0.403-0.543
			c0.394-1.305-0.859-1.549-1.402-2.238c-0.253-0.32-0.546-0.463-0.403-1.068c0.198-0.834-0.875-1.105-1.305-1.7
			c-0.301-0.416-0.693-0.531-0.606-1.265c0.083-0.697-0.914-1.067-1.343-1.669c-0.204-0.287-0.54-0.506-0.515-0.884
			c0.034-0.504-0.292-0.68-0.569-1.018c-1.22-1.49-2.491-2.874-2.453-5.131c0.134-7.904,0.049-15.813,0.064-23.72
			c0.002-0.981-0.326-2.085,0.862-2.735c0.159-0.087,0.133-0.513,0.192-0.781c0.198-0.431,0.573-0.699,0.917-0.995
			c0.833-0.831,1.271-1.93,1.944-2.869c0.237-0.394,0.591-0.676,0.923-0.979c1.569-1.801,2.676-3.94,4.419-5.645
			c0.966-0.945,1.796-2.196,2.353-3.524c0.045-0.108,0.078-0.245,0.162-0.311c1.43-1.11,2.059-2.884,3.409-4.087
			c0.437-0.389,0.779-0.527,1.302-0.583c2.067-0.223,3.683,0.107,4.676,2.333c0.607,1.36,1.55,2.652,2.475,3.859
			c0.523,0.684,1.252,1.319,1.583,2.074c0.601,1.367,1.481,2.617,2.334,3.715c0.884,1.139,1.094,2.781,2.552,3.529
			c0.492,0.252,0.376,1.058,0.775,1.552c0.962,1.191,1.887,2.426,2.512,3.846c0.667,0.639,0.646,1.47,0.636,2.296
			c-0.01,0.821,0.044,1.644-0.054,2.462c-0.015,0.142-0.045,0.28-0.085,0.417c-0.191,0.854-0.153,1.702,0.023,2.557
			c0.183,0.891,0.146,1.792,0.015,2.69c-0.194,4.772-0.174,9.545,0.002,14.314C84.478,84.594,84.496,85.31,83.927,85.918z"/>
		<path style="fill-rule:evenodd;clip-rule:evenodd;fill:#1B07D2;" d="M124.066,125.255c-0.591-0.332-0.99-0.747-0.764-1.51
			c0.05-0.165-0.015-0.518-0.104-0.547c-1.239-0.406-1.134-1.734-1.761-2.553c-0.144-0.188-0.219-0.349-0.463-0.45
			c-1.057-0.44-0.579-1.358-0.535-2.074c0.047-0.769,0.766-0.542,1.234-0.549c1.351-0.021,2.709-0.104,3.933,0.707
			c0.303,0.2,0.797,0.269,1.16,0.192c1.651-0.345,2.914,0.831,4.41,1.063c0.131,0.021,0.337,0.177,0.343,0.279
			c0.077,1.393,1.237,2.051,1.987,2.986c0.071,0.09,0.095,0.218,0.141,0.328c0.257,0.529,0.862,0.844,0.92,1.495
			c-0.016,0.712-0.293,1.485,0.715,1.861c0.291,0.108,0.205,0.647,0.239,1.004c0.139,1.442-0.452,3.013,0.817,4.267
			c0.198,0.194,0.123,0.687,0.139,1.043c0.032,0.772-0.067,1.489,0.693,2.132c0.563,0.476,0.289,1.499,0.921,2.192
			c0.364,0.399,0.863,0.694,1.226,1.117c0.518,0.606,0.494,1.143,0.571,1.778c0.098,0.798-0.263,0.979-0.95,0.839
			c-0.492-0.31-0.987-0.297-1.483-0.01c-2.227,0.407-4.328-0.675-6.542-0.542c-0.72,0.043-1.23-0.751-1.627-1.151
			c-0.766-0.774-1.748-1.321-2.348-2.433c-0.428-0.792-0.507-1.697-0.955-2.34c-1.216-1.74-0.694-3.672-0.955-5.51
			c-0.683-0.53-0.951-1.213-0.882-2.084C124.188,126.285,124.266,125.756,124.066,125.255z"/>
		<path style="fill-rule:evenodd;clip-rule:evenodd;fill:#BCB6F1;" d="M47.733,85.454c0.614-5.599-0.196-11.2,0.035-16.803
			c0.121-2.927,0.109-5.86,0.13-8.792c0.004-0.508-0.122-1.017-0.188-1.526c0.581,0.282,0.86,0.788,0.708,1.377
			c-0.397,1.535,0.138,3.043,0.039,4.572c-0.106,1.631-0.025,3.274-0.027,4.912c-0.002,1.598-0.01,3.195-0.008,4.793
			c0.002,1.638,0.017,3.276,0.02,4.913c0.004,1.639-0.011,3.276,0.005,4.914C48.454,84.481,48.423,85.104,47.733,85.454z"/>
		<path style="fill-rule:evenodd;clip-rule:evenodd;fill:#EDECFB;" d="M83.927,85.918c0.337-2.574,0.022-5.156,0.103-7.733
			c0.092-2.941-0.127-5.887,0.144-8.825c0.22-0.166,0.414-0.412,0.741-0.231c0.002,5.118-0.016,10.235,0.028,15.353
			C84.949,85.301,84.744,85.776,83.927,85.918z"/>
		<path style="fill-rule:evenodd;clip-rule:evenodd;fill:#B6AFF0;" d="M47.732,100.814c0.23-2.89,0.114-5.798,0.079-8.678
			c-0.022-1.815,0.565-3.681-0.088-5.487c1.026,0.763,0.852,1.798,0.543,2.788c-0.191,0.613-0.439,1.125,0.053,1.725
			c0.167,0.202,0.112,0.609,0.113,0.923c0.003,2.505-0.004,5.011-0.008,7.516c-0.237,0.371-0.112,0.882-0.468,1.207v-0.001
			C47.885,100.915,47.811,100.922,47.732,100.814z"/>
		<path style="fill-rule:evenodd;clip-rule:evenodd;fill:#E7E5F9;" d="M84.914,69.129c-0.247,0.077-0.494,0.154-0.741,0.231
			c0.154-1.769-0.388-3.538-0.002-5.308c0.306,0.361,0.263,0.798,0.268,1.225c-0.006-0.425,0.058-0.866-0.269-1.222
			c-0.139-1.66,0.138-3.341-0.258-4.988c0.818,0.132,1.045,0.594,1.028,1.422C84.882,63.369,84.916,66.25,84.914,69.129z"/>
		<path style="fill-rule:evenodd;clip-rule:evenodd;fill:#978EEA;" d="M100.062,39.105c-0.689-0.657-1.456-0.858-2.389-0.532
			c-0.724,0.253-1.501,0.043-2.248,0.103c-2.637,0.212-5.265-0.208-7.905-0.077c-0.844,0.042-1.354,0.244-1.609,1.031
			c-0.166-1.101,0.311-1.482,1.409-1.472c3.752,0.034,7.504,0.005,11.256-0.029C99.331,38.123,99.931,38.222,100.062,39.105z"/>
		<path style="fill-rule:evenodd;clip-rule:evenodd;fill:#F2F1FC;" d="M47.687,39.915c-0.077-1.155-0.753-1.443-1.83-1.489
			c-3.575-0.152-7.129,0.362-10.702,0.249c-0.62-0.02-1.255,0.18-1.802,0.539c0.306-0.736,0.876-1.052,1.653-1.051
			c3.951,0.001,7.902-0.002,11.854,0.001c0.551,0,1.188-0.096,1.495,0.495C48.7,39.322,47.796,39.43,47.687,39.915z"/>
		<path style="fill-rule:evenodd;clip-rule:evenodd;fill:#A59CEC;" d="M47.744,53.782c0.101-3.441-0.25-6.891,0.178-10.326
			c0.034-0.274,0.026-0.56,0.262-0.763c0.292,0.938,0.077,1.839-0.194,2.737c0.405,2.402,0.153,4.824,0.226,7.237
			C48.229,53.111,48.245,53.555,47.744,53.782z"/>
		<path style="fill-rule:evenodd;clip-rule:evenodd;fill:#5E4FDF;" d="M62.568,128.194c1.606-0.17,3.127,0.467,4.735,0.46
			c1.768-0.007,3.469-0.24,5.155-0.709c-0.819,0.842-1.855,0.952-2.958,0.924c-1.988-0.052-3.981,0.087-5.966-0.158
			C63.126,128.66,62.731,128.668,62.568,128.194z"/>
		<path style="fill-rule:evenodd;clip-rule:evenodd;fill:#DBD8F7;" d="M129.786,79.208c-0.986,1.75-0.715,3.705-0.912,5.585
			c-0.014-1.394-0.021-2.787-0.044-4.181C128.818,79.91,129.283,79.55,129.786,79.208z"/>
		<path style="fill-rule:evenodd;clip-rule:evenodd;fill:#7366E3;" d="M110.099,140.851c0.248-0.723,0.854-0.427,1.324-0.434
			c0.715-0.012,1.449,0.122,2.002-0.509c0.009,0.742-0.358,1.051-1.094,1.007C111.588,140.871,110.843,140.871,110.099,140.851z"/>
		<path style="fill-rule:evenodd;clip-rule:evenodd;fill:#ADA6EE;" d="M47.989,45.43c-0.162-0.928,0.389-1.806,0.194-2.737
			c0.249-0.795-0.261-1.425-0.464-2.122c0.167,0.102,0.375,0.169,0.494,0.311C48.683,41.44,48.503,44.782,47.989,45.43z"/>
		<path style="fill-rule:evenodd;clip-rule:evenodd;fill:#D1CDF5;" d="M16.965,81.906c-0.325-1.348-0.103-2.719-0.16-4.078
			c-0.027-0.645-0.143-1.221-0.523-1.739c0.615-0.063,0.732,0.305,0.726,0.812C16.987,78.568,16.979,80.237,16.965,81.906z"/>
		<path style="fill-rule:evenodd;clip-rule:evenodd;fill:#BCB6F1;" d="M79.193,129.876c-0.713,0.374-1.469,0.108-2.203,0.133
			c-0.953,0.031-1.895,0.036-2.658,0.729c0.123-0.648,0.503-0.925,1.172-0.904C76.732,129.872,77.963,129.865,79.193,129.876z"/>
		<path style="fill-rule:evenodd;clip-rule:evenodd;fill:#BBB5F1;" d="M60.193,130.58c-0.765-0.651-1.704-0.481-2.593-0.559
			c-0.74-0.064-1.5,0.155-2.222-0.153c1.34-0.006,2.68-0.008,4.02-0.021C59.905,129.842,60.259,129.976,60.193,130.58z"/>
		<path style="fill-rule:evenodd;clip-rule:evenodd;fill:#998FEA;" d="M127.898,54.236c0.238,0.151,0.248,0.391,0.221,0.628
			c-0.133,1.159-0.021,2.259,0.735,3.213c-0.757-0.095-0.915-0.679-0.948-1.273C127.858,55.951,127.896,55.093,127.898,54.236z"/>
		<path style="fill-rule:evenodd;clip-rule:evenodd;fill:#ACA5EE;" d="M12.196,88.814c-0.077-0.128-0.234-0.268-0.218-0.384
			c0.17-1.245-0.037-2.399-0.754-3.446c0.816,0.111,0.933,0.748,0.967,1.379C12.234,87.178,12.198,87.998,12.196,88.814z"/>
		<path style="fill-rule:evenodd;clip-rule:evenodd;fill:#C2BDF2;" d="M74.577,19.273c0.929,0.603,1.979,0.392,2.991,0.463
			c0.463,0.033,0.953-0.13,1.385,0.168c-1.145,0.009-2.289,0.027-3.434,0.023C75.071,19.927,74.625,19.874,74.577,19.273z"/>
		<path style="fill-rule:evenodd;clip-rule:evenodd;fill:#BFBAF2;" d="M124.066,125.255c0.286,0.251,0.188,0.598,0.16,0.886
			c-0.103,1.028,0.274,1.897,0.803,2.73c-0.793-0.054-0.93-0.668-0.972-1.257C124.003,126.833,124.059,126.042,124.066,125.255z"/>
		<path style="fill-rule:evenodd;clip-rule:evenodd;fill:#6E61E2;" d="M47.762,57.172c0.242-0.829,0.211-1.657-0.004-2.485
			C48.665,55.486,48.667,56.314,47.762,57.172z"/>
		<path style="fill-rule:evenodd;clip-rule:evenodd;fill:#C6C1F3;" d="M126.934,50.63c0.249,0.349,0.211,0.766,0.171,1.137
			c-0.103,0.955,0.209,1.752,0.771,2.486c-0.688-0.066-0.948-0.513-0.958-1.134C126.904,52.29,126.927,51.46,126.934,50.63z"/>
		<path style="fill-rule:evenodd;clip-rule:evenodd;fill:#B4ADF0;" d="M11.223,58.078c0.73-1.011,0.916-2.149,0.787-3.361
			C12.556,56.344,12.297,57.451,11.223,58.078z"/>
		<path style="fill-rule:evenodd;clip-rule:evenodd;fill:#AEA6EE;" d="M10.512,61.923c0.759-0.795,0.416-1.807,0.537-2.728
			c0.049-0.375-0.216-0.798,0.172-1.121c0.009,0.954,0.027,1.907,0.023,2.861C11.241,61.429,11.205,61.927,10.512,61.923z"/>
		<path style="fill-rule:evenodd;clip-rule:evenodd;fill:#A9A1ED;" d="M11.222,84.985c-0.436-0.699-0.109-1.467-0.181-2.199
			c-0.059-0.605-0.114-1.178-0.504-1.669c0.681,0.032,0.699,0.537,0.703,1.021C11.249,83.086,11.229,84.036,11.222,84.985z"/>
		<path style="fill-rule:evenodd;clip-rule:evenodd;fill:#A69EED;" d="M5.731,58.099c0.837-1.027,0.419-2.247,0.519-3.387
			c0.452,0.933,0.189,1.908,0.146,2.865C6.38,57.936,6.089,58.097,5.731,58.099z"/>
		<path style="fill-rule:evenodd;clip-rule:evenodd;fill:#D1CDF5;" d="M115.592,54.966c-0.219,1.021,0.967,1.477,0.97,2.409
			C115.931,56.696,114.911,56.173,115.592,54.966z"/>
		<path style="fill-rule:evenodd;clip-rule:evenodd;fill:#D7D4F6;" d="M0.72,84.9c0.091,0.758,0.896,1.194,0.896,1.992
			C0.593,86.554,0.556,85.772,0.72,84.9z"/>
		<path style="fill-rule:evenodd;clip-rule:evenodd;fill:#B7B1F0;" d="M85.909,106.296c0.219,0.531,0.502,0.966,1.189,0.795
			c-0.084,0.373-0.222,0.773-0.692,0.54C85.879,107.369,85.775,106.854,85.909,106.296z"/>
		<path style="fill-rule:evenodd;clip-rule:evenodd;fill:#E2DFF8;" d="M133.672,81.131c-0.045-0.817,0.795-1.237,0.895-1.99
			C134.784,80.037,134.536,80.722,133.672,81.131z"/>
		<path style="fill-rule:evenodd;clip-rule:evenodd;fill:#BEB8F1;" d="M6.399,86.939c-0.041-0.774-0.708-1.269-0.888-1.981
			C6.642,85.244,6.493,86.104,6.399,86.939z"/>
		<path style="fill-rule:evenodd;clip-rule:evenodd;fill:#D7D3F6;" d="M121.191,81.137c0.026-0.721,0.774-1.066,0.9-1.735
			C122.22,80.202,122.172,80.912,121.191,81.137z"/>
		<path style="fill-rule:evenodd;clip-rule:evenodd;fill:#ACA4EE;" d="M85.878,127.928c-0.798,0.498-1.935-0.178-2.608,0.752
			c-0.06-0.616,0.351-0.738,0.824-0.752C84.688,127.911,85.283,127.927,85.878,127.928z"/>
		<path style="fill-rule:evenodd;clip-rule:evenodd;fill:#766AE3;" d="M137.456,140.847c0.499-0.67,0.993-0.704,1.483,0.01
			C138.444,140.854,137.95,140.851,137.456,140.847z"/>
		<path style="fill-rule:evenodd;clip-rule:evenodd;fill:#DAD6F7;" d="M12.16,31.442c-0.085,0.687-0.732,1.083-0.897,1.729
			C11.118,32.365,11.329,31.742,12.16,31.442z"/>
		<path style="fill-rule:evenodd;clip-rule:evenodd;fill:#B1AAEF;" d="M22.711,38.145c-0.373,0.535-0.723,1.081-0.898,1.719
			C21.807,39.132,21.488,38.235,22.711,38.145z"/>
		<path style="fill-rule:evenodd;clip-rule:evenodd;fill:#C1BCF2;" d="M133.605,57.894c-0.091-0.69-0.812-1.045-0.918-1.726
			C133.548,56.448,133.827,57.038,133.605,57.894z"/>
		<path style="fill-rule:evenodd;clip-rule:evenodd;fill:#BFB9F2;" d="M8.348,57.126c-0.142,0.661-0.82,1.037-0.917,1.722
			C7.214,57.996,7.487,57.405,8.348,57.126z"/>
		<path style="fill-rule:evenodd;clip-rule:evenodd;fill:#9A90EA;" d="M16.071,105.105c0.221,0.617,0.476,1.217,0.895,1.731
			C15.743,106.737,16.064,105.839,16.071,105.105z"/>
		<path style="fill-rule:evenodd;clip-rule:evenodd;fill:#B2AAEF;" d="M48.878,15.088c0.761-0.375,1.796,0.166,2.404-0.719
			c0.058,0.772-0.503,0.764-1.013,0.774C49.806,15.153,49.342,15.109,48.878,15.088z"/>
		<path style="fill-rule:evenodd;clip-rule:evenodd;fill:#9A90EA;" d="M124.071,108.753c0.411-0.518,0.687-1.106,0.892-1.731
			C124.986,107.764,125.293,108.652,124.071,108.753z"/>
		<path style="fill-rule:evenodd;clip-rule:evenodd;fill:#B0A8EE;" d="M50.828,134.425c-0.633-0.824-1.635-0.39-2.416-0.709
			c0.536-0.015,1.071-0.044,1.607-0.041C50.502,133.678,50.839,133.873,50.828,134.425z"/>
		<path style="fill-rule:evenodd;clip-rule:evenodd;fill:#AFA8EE;" d="M54.676,135.375c-0.659-0.771-1.643-0.387-2.435-0.685
			C53.084,134.806,54.188,133.997,54.676,135.375z"/>
		<path style="fill-rule:evenodd;clip-rule:evenodd;fill:#A198EC;" d="M15.011,54.449c-0.286,0.503-0.571,1.006-0.857,1.509
			C14.074,55.247,13.961,54.518,15.011,54.449z"/>
		<path style="fill-rule:evenodd;clip-rule:evenodd;fill:#B1AAEF;" d="M17.98,107.987c0.198,0.629,0.531,1.187,0.905,1.723
			C17.742,109.578,17.957,108.732,17.98,107.987z"/>
		<path style="fill-rule:evenodd;clip-rule:evenodd;fill:#D5D2F6;" d="M134.568,124.624c-0.247-0.535-1.011-0.752-0.92-1.495
			C134.187,123.485,134.822,123.781,134.568,124.624z"/>
		<path style="fill-rule:evenodd;clip-rule:evenodd;fill:#9085E8;" d="M57.103,9.406c-0.644,0.231-1.289,0.463-1.933,0.695
			C55.511,9.026,56.375,9.407,57.103,9.406z"/>
		<path style="fill-rule:evenodd;clip-rule:evenodd;fill:#A59CED;" d="M132.741,86.686c0.316-0.567,0.729-1.088,0.866-1.743
			C133.66,85.693,133.857,86.516,132.741,86.686z"/>
		<path style="fill-rule:evenodd;clip-rule:evenodd;fill:#6C5FE1;" d="M77.514,2.622c-0.467,0.012-1.019,0.278-1.252-0.415
			C76.71,2.25,77.306,1.851,77.514,2.622z"/>
		<path style="fill-rule:evenodd;clip-rule:evenodd;fill:#B1AAEF;" d="M16.972,36.239c-0.041,0.71-0.741,1.076-0.903,1.723
			C15.877,37.129,16.362,36.651,16.972,36.239z"/>
		<path style="fill-rule:evenodd;clip-rule:evenodd;fill:#C7C1F3;" d="M93.536,130.796c-0.591,0.328-1.427,0.082-1.853,0.794
			C91.862,130.301,92.862,130.928,93.536,130.796z"/>
		<path style="fill-rule:evenodd;clip-rule:evenodd;fill:#CBC6F4;" d="M79.424,13.413c0.491,0.673,1.299,0.488,1.953,0.718
			C80.662,14.066,79.684,14.716,79.424,13.413z"/>
		<path style="fill-rule:evenodd;clip-rule:evenodd;fill:#A097EC;" d="M116.61,59.281c0.229,0.544,0.513,1.073,0.464,1.693
			C116.253,60.592,116.605,59.889,116.61,59.281z"/>
		<path style="fill-rule:evenodd;clip-rule:evenodd;fill:#D8D5F7;" d="M2.638,92.104c0.112,0.484,0.813,0.65,0.688,1.265
			C2.305,93.377,2.632,92.653,2.638,92.104z"/>
		<path style="fill-rule:evenodd;clip-rule:evenodd;fill:#A79FED;" d="M119.268,103.943c0.045-0.709,0.789-1.042,0.92-1.705
			C120.392,103.082,119.855,103.527,119.268,103.943z"/>
		<path style="fill-rule:evenodd;clip-rule:evenodd;fill:#B3ACEF;" d="M48.399,127.735c-0.443-0.759-1.311-0.398-1.917-0.729
			C47.175,127.108,48.174,126.403,48.399,127.735z"/>
		<path style="fill-rule:evenodd;clip-rule:evenodd;fill:#C1BBF2;" d="M34.09,16.111c0.466-0.391,1.257-0.134,1.587-0.797
			C35.597,16.474,34.696,16,34.09,16.111z"/>
		<path style="fill-rule:evenodd;clip-rule:evenodd;fill:#A49CEC;" d="M1.385,57.118c-0.471,0.479-0.451,1.146-0.665,1.724
			C0.722,58.183,0.284,57.354,1.385,57.118z"/>
		<path style="fill-rule:evenodd;clip-rule:evenodd;fill:#998FEA;" d="M27.589,119.258c0.569,0.102,0.817,0.612,1.205,0.945
			C27.991,120.399,27.93,119.651,27.589,119.258z"/>
		<path style="fill-rule:evenodd;clip-rule:evenodd;fill:#DFDCF8;" d="M117.576,43.685c0.389,0.203,0.753,0.426,0.755,0.94
			C117.882,44.471,117.293,44.429,117.576,43.685z"/>
		<path style="fill-rule:evenodd;clip-rule:evenodd;fill:#B4ADEF;" d="M114.663,104.883c-0.032,0.612-0.537,0.88-0.907,1.245
			C113.638,105.408,114.195,105.178,114.663,104.883z"/>
		<path style="fill-rule:evenodd;clip-rule:evenodd;fill:#A097EB;" d="M71.688,105.813c0.688-0.37,0.313-1.187,0.706-1.681
			C72.291,104.749,72.917,105.67,71.688,105.813z"/>
		<path style="fill-rule:evenodd;clip-rule:evenodd;fill:#C3BEF2;" d="M129.769,45.172c-0.205-0.481-0.855-0.652-0.879-1.26
			C129.537,44.083,129.908,44.45,129.769,45.172z"/>
		<path style="fill-rule:evenodd;clip-rule:evenodd;fill:#BDB7F1;" d="M23.676,33.1c0.038-0.48,0.441-0.667,0.748-0.932
			C24.596,32.816,24.276,33.07,23.676,33.1z"/>
		<path style="fill-rule:evenodd;clip-rule:evenodd;fill:#CCC8F4;" d="M19.925,100.503c0.061,0.636,0.817,0.878,0.86,1.522
			C20.118,101.734,19.696,101.302,19.925,100.503z"/>
		<path style="fill-rule:evenodd;clip-rule:evenodd;fill:#CCC7F4;" d="M27.534,20.874c0.434-0.328,1.102-0.232,1.413-0.782
			C28.937,21.187,28.128,20.835,27.534,20.874z"/>
		<path style="fill-rule:evenodd;clip-rule:evenodd;fill:#A9A1ED;" d="M123.323,42.727c0.324,0.255,0.688,0.48,0.729,0.953
			C123.452,43.637,123.231,43.301,123.323,42.727z"/>
		<path style="fill-rule:evenodd;clip-rule:evenodd;fill:#BEB8F1;" d="M114.706,53.256c0.325,0.259,0.652,0.518,0.749,0.956
			C114.778,54.227,114.604,53.85,114.706,53.256z"/>
		<path style="fill-rule:evenodd;clip-rule:evenodd;fill:#DCD9F7;" d="M47.957,100.807c-0.018-0.47,0.125-0.877,0.468-1.207
			C48.348,100.033,48.733,100.645,47.957,100.807z"/>
		<path style="fill-rule:evenodd;clip-rule:evenodd;fill:#DCD9F7;" d="M47.732,100.814c0.075-0.005,0.149-0.007,0.224-0.008
			c-0.102,0.639,0.234,1.327-0.223,1.924C47.733,102.091,47.733,101.453,47.732,100.814z"/>
		<path style="fill-rule:evenodd;clip-rule:evenodd;fill:#9B92EB;" d="M56.585,127.228c0.413,0.223,0.827,0.445,1.24,0.668
			C57.254,127.965,56.626,128.142,56.585,127.228z"/>
		<path style="fill-rule:evenodd;clip-rule:evenodd;fill:#B8B1F0;" d="M118.237,49.738c-0.303-0.33-0.756-0.537-0.854-1.036
			C118.052,48.73,118.284,49.119,118.237,49.738z"/>
		<path style="fill-rule:evenodd;clip-rule:evenodd;fill:#D0CBF5;" d="M121.121,29.829c-0.197-0.489-0.844-0.669-0.879-1.271
			C120.771,28.818,121.278,29.094,121.121,29.829z"/>
		<path style="fill-rule:evenodd;clip-rule:evenodd;fill:#B5AEF0;" d="M23.707,27.601c-0.303,0.337-0.605,0.675-0.907,1.013
			C22.795,28.001,22.996,27.573,23.707,27.601z"/>
		<path style="fill-rule:evenodd;clip-rule:evenodd;fill:#ADA6EE;" d="M82.247,132.697c0.409-0.231,0.818-0.463,1.228-0.693
			C83.472,132.954,82.827,132.768,82.247,132.697z"/>
		<path style="fill-rule:evenodd;clip-rule:evenodd;fill:#ABA3EE;" d="M110.554,134.694c-0.272-0.359-0.737-0.553-0.885-1.021
			C110.192,133.815,110.745,133.932,110.554,134.694z"/>
		<path style="fill-rule:evenodd;clip-rule:evenodd;fill:#A29AEC;" d="M99.364,135.572c0.279,0.354,0.725,0.563,0.887,1.019
			C99.696,136.476,99.188,136.322,99.364,135.572z"/>
		<path style="fill-rule:evenodd;clip-rule:evenodd;fill:#D8D5F6;" d="M106.997,140.422c0.435-0.076,0.882-0.18,1.015,0.439
			C107.608,140.867,107.122,141.061,106.997,140.422z"/>
		<path style="fill-rule:evenodd;clip-rule:evenodd;fill:#D1CDF5;" d="M16.281,76.088c-0.26-0.453-0.197-0.953-0.21-1.441
			C16.471,75.08,16.423,75.577,16.281,76.088z"/>
		<path style="fill-rule:evenodd;clip-rule:evenodd;fill:#AFA8EF;" d="M73.598,102.928c0.321-0.325,0.558-0.69,0.558-1.17
			C74.494,102.399,74.507,102.883,73.598,102.928z"/>
		<path style="fill-rule:evenodd;clip-rule:evenodd;fill:#ACA4EE;" d="M124.024,81.123c-0.007,0.487-0.367,0.72-0.7,0.972
			C123.167,81.489,123.595,81.305,124.024,81.123z"/>
		<path style="fill-rule:evenodd;clip-rule:evenodd;fill:#AFA7EE;" d="M15.276,46.526c0.374-0.299,0.543-0.695,0.552-1.166
			C16.145,45.986,16.197,46.486,15.276,46.526z"/>
		<path style="fill-rule:evenodd;clip-rule:evenodd;fill:#AFA7EE;" d="M11.438,41.728c0.362-0.305,0.55-0.692,0.55-1.168
			C12.325,41.195,12.347,41.681,11.438,41.728z"/>
		<path style="fill-rule:evenodd;clip-rule:evenodd;fill:#B2ABEF;" d="M55.361,52.31c-0.216,0.413-0.539,0.724-0.923,0.979
			C54.456,52.688,54.833,52.427,55.361,52.31z"/>
		<path style="fill-rule:evenodd;clip-rule:evenodd;fill:#BAB4F1;" d="M52.494,56.157c-0.2,0.429-0.534,0.735-0.917,0.995
			C51.559,56.522,51.951,56.27,52.494,56.157z"/>
		<path style="fill-rule:evenodd;clip-rule:evenodd;fill:#B4ADEF;" d="M4.274,47.287c-0.23,0.41-0.46,0.82-0.69,1.229
			C3.508,47.935,3.451,47.364,4.274,47.287z"/>
		<path style="fill-rule:evenodd;clip-rule:evenodd;fill:#D1CDF5;" d="M118.57,45.599c0.442,0.165,0.73,0.444,0.71,0.953
			C119.103,46.19,118.373,46.239,118.57,45.599z"/>
		<path style="fill-rule:evenodd;clip-rule:evenodd;fill:#CAC5F4;" d="M119.253,96.498c-0.133,0.348-0.385,0.582-0.708,0.75
			C118.423,96.66,118.69,96.439,119.253,96.498z"/>
		<path style="fill-rule:evenodd;clip-rule:evenodd;fill:#C7C2F3;" d="M18.658,86.682c-0.298-0.189-0.569-0.405-0.717-0.74
			C18.497,85.881,18.781,86.084,18.658,86.682z"/>
		<path style="fill-rule:evenodd;clip-rule:evenodd;fill:#9F96EB;" d="M53.75,16.128c-0.333,0.224-0.667,0.447-1,0.671
			C52.813,16.171,53.167,15.979,53.75,16.128z"/>
		<path style="fill-rule:evenodd;clip-rule:evenodd;fill:#D4D1F5;" d="M0.685,80.163c-0.005,0.243-0.01,0.486-0.015,0.73
			c-0.5-0.065-0.489-0.409-0.428-0.782C0.403,80.011,0.55,80.034,0.685,80.163z"/>
		<path style="fill-rule:evenodd;clip-rule:evenodd;fill:#CAC5F4;" d="M116.405,111.874c0.014,0.521-0.444,0.687-0.737,0.976
			C115.599,112.287,115.955,112.044,116.405,111.874z"/>
		<path style="fill-rule:evenodd;clip-rule:evenodd;fill:#B6AFF0;" d="M111.315,18.736c-0.248-0.234-0.495-0.469-0.742-0.703
			C111.122,17.948,111.402,18.148,111.315,18.736z"/>
		<path style="fill-rule:evenodd;clip-rule:evenodd;fill:#ABA3EE;" d="M47.956,131.055c0.333,0.227,0.665,0.452,0.997,0.679
			C48.363,131.887,48.02,131.676,47.956,131.055z"/>
		<path style="fill-rule:evenodd;clip-rule:evenodd;fill:#ABA4EE;" d="M112.749,103.441c0.229-0.331,0.456-0.663,0.684-0.994
			C113.571,103.03,113.432,103.421,112.749,103.441z"/>
		<path style="fill-rule:evenodd;clip-rule:evenodd;fill:#B6B0F0;" d="M100.746,11.069c-0.328-0.235-0.655-0.47-0.982-0.705
			C100.364,10.217,100.711,10.426,100.746,11.069z"/>
		<path style="fill-rule:evenodd;clip-rule:evenodd;fill:#A9A1ED;" d="M38.64,8.455c-0.333,0.225-0.667,0.449-1.001,0.673
			C37.692,8.486,38.053,8.302,38.64,8.455z"/>
		<path style="fill-rule:evenodd;clip-rule:evenodd;fill:#D4D0F6;" d="M75.275,140.865c0.069-0.471,0.362-0.555,0.768-0.443
			C75.983,140.909,75.65,140.922,75.275,140.865z"/>
		<path style="fill-rule:evenodd;clip-rule:evenodd;fill:#B0A9EF;" d="M90.423,6.271c-0.329-0.232-0.658-0.463-0.987-0.695
			C90.03,5.431,90.4,5.603,90.423,6.271z"/>
		<path style="fill-rule:evenodd;clip-rule:evenodd;fill:#4A39DB;" d="M0.685,80.163c-0.148-0.018-0.295-0.034-0.443-0.052
			c0.001-0.224,0.002-0.448,0.004-0.673C0.706,79.49,0.722,79.81,0.685,80.163z"/>
		<path style="fill-rule:evenodd;clip-rule:evenodd;fill:#A79FED;" d="M87.324,18.724c-0.255-0.222-0.51-0.445-0.766-0.667
			C87.12,17.928,87.264,18.278,87.324,18.724z"/>
		<path style="fill-rule:evenodd;clip-rule:evenodd;fill:#ACA4EE;" d="M84.68,17.77c-0.255-0.224-0.511-0.447-0.766-0.671
			C84.471,16.978,84.634,17.308,84.68,17.77z"/>
		<path style="fill-rule:evenodd;clip-rule:evenodd;fill:#B3ACEF;" d="M16.076,93.091c0.229,0.252,0.459,0.504,0.689,0.756
			C16.32,93.792,15.966,93.652,16.076,93.091z"/>
		<path style="fill-rule:evenodd;clip-rule:evenodd;fill:#B3ACEF;" d="M106.52,23.53c-0.255-0.226-0.51-0.451-0.765-0.677
			C106.313,22.736,106.464,23.079,106.52,23.53z"/>
		<path style="fill-rule:evenodd;clip-rule:evenodd;fill:#F6F5FC;" d="M108.024,120.6c-0.057,0.871-0.727,1.308-1.206,1.634
			c-0.514,0.349-0.644-0.512-0.911-0.837c-0.405-0.494-0.423-1.008,0.299-1.325c0.393-0.172,0.308-1.074,0.983-0.771
			C107.717,119.537,107.855,120.138,108.024,120.6z"/>
		<path style="fill-rule:evenodd;clip-rule:evenodd;fill:#FEFEFE;" d="M78.23,85.484c-0.54,0.598-1.014,1.133-0.997,2.104
			c0.006,0.392-0.708,1.057-1.068,1.633c-0.686,1.099-1.209,2.302-2.065,3.311c-0.618,0.729-0.941,1.702-1.532,2.46
			c-0.828,1.063-1.195,2.388-2.063,3.414c-0.452,0.503-0.932,0.991-0.904,1.743c-1.137,0.604-0.808,2.19-2.007,2.836
			c-0.636-1.462-1.971-2.581-2.649-3.975c-0.673-1.382-1.995-2.366-2.267-3.931c-0.108-0.619-0.813-0.452-1.087-0.984
			c-0.644-1.244-1.574-2.374-2.271-3.543c-0.668-1.122-1.566-2.089-2.147-3.248c-0.574-1.143-1.084-2.315-1.926-3.299
			c-0.208-0.243-0.106-0.534-0.106-0.805c-0.004-7.153-0.001-14.306-0.012-21.459c0-0.42-0.037-0.785,0.487-0.935
			c0.296-0.084,0.437-0.395,0.423-0.67c-0.056-1.086,0.733-1.59,1.438-2.139c0.65-0.507,0.795-1.333,1.238-1.971
			c0.505-0.729,1.014-1.401,1.67-1.985c0.651-0.58,0.443-1.611,1.219-2.184c1.031-0.762,1.471-1.969,2.061-3.071
			c0.236-0.442,0.946-0.633,1.128-1.239c0.6-0.318,0.858-0.84,0.893-1.495c0.597-0.719,1.167-1.461,1.799-2.146
			c0.367-0.398,0.916-0.367,1.04,0.163c0.186,0.795,0.588,1.276,1.16,1.869c1.036,1.073,1.282,2.8,2.724,3.627
			c-0.186,1.822,2.161,2.26,2.179,3.991c0.005,0.447,0.585,0.507,0.803,0.833c0.674,1.004,1.406,1.979,1.972,3.042
			c0.329,0.618,0.923,0.946,1.302,1.542c0.565,0.888,0.714,1.771,0.689,2.67c-0.199,7.304-0.058,14.607-0.082,21.911
			c0,0.152-0.072,0.305-0.111,0.457C78.799,84.469,78.323,84.856,78.23,85.484z"/>
		<path style="fill-rule:evenodd;clip-rule:evenodd;fill:#CAC5F4;" d="M69.6,100.148c-0.152-0.816,0.01-1.47,0.904-1.743
			C70.203,98.986,69.901,99.567,69.6,100.148z"/>
		<path style="fill-rule:evenodd;clip-rule:evenodd;fill:#B4ADEF;" d="M78.23,85.484c-0.091-0.743,0.256-1.211,0.928-1.475
			C79.125,84.673,78.405,84.908,78.23,85.484z"/>
		<path style="fill-rule:evenodd;clip-rule:evenodd;fill:#B5AEF0;" d="M65.685,46.052c0.071,0.718,0.11,1.418-0.893,1.495
			C65.122,47.068,65.535,46.638,65.685,46.052z"/>
		<path style="fill-rule:evenodd;clip-rule:evenodd;fill:#FEFEFE;" d="M84.17,64.056c0.905,0.614,0.412,1.456,0.352,2.228
			c-0.515-0.679-0.162-1.5-0.351-2.231L84.17,64.056z"/>
	</g>
</g>
</svg>
